<svg width="34" height="40" viewBox="0 0 34 40" fill="none" xmlns="http://www.w3.org/2000/svg">
<path d="M33.5019 29.2067C32.8033 31.3717 31.7897 33.422 30.4936 35.2917L30.5436 35.215C28.4758 38.3561 26.4169 39.9267 24.3669 39.9267C23.1851 39.8467 22.0237 39.5777 20.9269 39.13L21.0003 39.1567C19.8517 38.6877 18.6286 38.4275 17.3886 38.3883H17.3703C16.1709 38.432 14.9916 38.7094 13.8986 39.205L13.9569 39.1817C12.9693 39.6526 11.9006 39.9298 10.8086 39.9983L10.7836 40C8.34805 40 5.93583 37.925 3.54694 33.775C1.33552 30.1328 0.117266 25.9747 0.0136031 21.715V21.6817C-0.128037 18.4464 0.83986 15.2599 2.75694 12.65L2.7286 12.69C3.5013 11.6171 4.51796 10.7433 5.69476 10.1405C6.87155 9.5378 8.17476 9.22342 9.49694 9.22333H9.5586H9.55527C11.0393 9.27026 12.5096 9.52381 13.9236 9.97667L13.8103 9.945C14.8634 10.3041 15.9536 10.5434 17.0603 10.6583L17.1286 10.665C18.3374 10.5623 19.5237 10.2768 20.6469 9.81833L20.5669 9.84667C21.8923 9.35557 23.2877 9.07985 24.7003 9.03H24.8419C26.6419 9.02713 28.399 9.57946 29.8736 10.6117L29.8453 10.5933C30.7986 11.2867 31.6219 12.0767 32.3253 12.9667L32.3453 12.9933C31.3291 13.8098 30.4183 14.7492 29.6336 15.79L29.6053 15.83C28.5837 17.2706 28.0372 18.994 28.0419 20.76V20.8083V20.8067V20.91C28.0419 22.8783 28.6636 24.7017 29.7203 26.195L29.7003 26.1667C30.5743 27.5665 31.8941 28.6314 33.4469 29.19L33.4986 29.2067H33.5019ZM24.4636 1.01C24.4335 2.15521 24.1893 3.28466 23.7436 4.34L23.7669 4.28C23.2562 5.52714 22.4963 6.65688 21.5336 7.6L21.5319 7.60167C20.8234 8.36065 19.9514 8.94829 18.9819 9.32L18.9353 9.335C18.131 9.54983 17.3076 9.68547 16.4769 9.74L16.4353 9.74167V9.695C16.4353 7.40833 17.1353 5.28333 18.3336 3.52667L18.3086 3.565C19.7799 1.67832 21.9033 0.409752 24.2619 0.00833333L24.3186 0C24.3403 0.0716667 24.3619 0.161667 24.3769 0.253333L24.3786 0.266667C24.3953 0.371667 24.4169 0.461667 24.4436 0.55L24.4386 0.533333C24.4386 0.597778 24.4425 0.677778 24.4503 0.773333C24.458 0.868889 24.4619 0.947778 24.4619 1.01H24.4636Z" fill="#E0E0E0"/>
</svg>
